<svg xmlns="http://www.w3.org/2000/svg" xmlns:xlink="http://www.w3.org/1999/xlink" version="1.1" id="Layer_1" x="0px" y="0px" width="100px" height="93.6170212766px" viewBox="0 0 141.25 132.166" enable-background="new 0 0 141.25 132.166" xml:space="preserve">
<path fill="#000000" d="M41.443,132.165v-12.107c0-5.006,1.953-9.719,5.48-13.244l72.062-67.335  c5.591-5.58,8.667-12.903,9.009-20.729h12.646L121.89,0l-18.75,18.75h12.365c-0.328,4.492-2.137,8.667-5.347,11.891L38.097,97.962  c-5.907,5.908-9.154,13.744-9.154,22.096v12.107H41.443z"/>
<path fill="#000000" d="M63.381,18.75c0.342,7.824,2.062,19.083,10.271,26.418l6.97,6.922l9.613-8.549l-7.757-7.236  c-4.701-4.556-6.868-10.972-6.608-17.556h12.365L69.485,0l-18.75,18.75H63.381z"/>
<path fill="#000000" d="M62.325,69.896L30.591,30.641c-2.784-3.594-5.018-7.398-5.347-11.891H37.61L18.86,0L0.11,18.75h12.646  c0.342,7.825,4.125,14.37,9.009,20.729l31.412,38.963L62.325,69.896z"/>
</svg>